# Created by MKDS Course Modifier
mtllib Pokémon Gym.mtl
g polygon0
usemtl lambert1
v 13 9 26
v 13 45 26
v 13 45 17
v 13 9 17
v 20 58 21
v 20 42 21
v 20 42 2
v 20 58 2
vn -1 0 0
vn -1 0 0
vn -1 0 0
vn -1 0 0
vn 0.9980469 0 0
vn 0.9980469 0 0
vn 0.9980469 0 0
vn 0.9980469 0 0
vt NaN 0
vt NaN 0
vt NaN 0
vt NaN 0
vt NaN 0
vt NaN 0
vt NaN 0
vt NaN 0
f 1/1/1 2/2/2 3/3/3 4/4/4
f 5/5/5 6/6/6 7/7/7 8/8/8
g polygon1
usemtl h_kage
v 61 2 18
v 61 2 -21
v 53 2 18
v 53 2 -31
v -53 2 18
v -53 2 -31
vn 0 0.9980469 0
vn 0 0.9980469 0
vn 0 0.9980469 0
vn 0 0.9980469 0
vn 0 0.9980469 0
vn 0 0.9980469 0
vt 1 0.5
vt 1 1
vt 0.5 0.5
vt 0.5 1
vt 0 0.5
vt 0 1
f 9/9/9 10/10/10 11/11/11
f 10/10/10 12/12/12 11/11/11
f 11/11/11 12/12/12 13/13/13
f 12/12/12 14/14/14 13/13/13
v 61 2 32
v 61 2 18
v 53 2 32
v 53 2 18
v -43 2 32
v -53 2 18
vn 0 0.9980469 0
vn 0 0.9980469 0
vn 0 0.9980469 0
vn 0 0.9980469 0
vn 0 0.9980469 0
vn 0 0.9980469 0
vt 1 0
vt 1 0.5
vt 0.5 0
vt 0.5 0.5
vt 0 0
vt 0 0.5
f 15/15/15 16/16/16 17/17/17
f 16/16/16 18/18/18 17/17/17
f 17/17/17 18/18/18 19/19/19
f 18/18/18 20/20/20 19/19/19
g polygon2
usemtl lambert5
v 47 30 17
v 47 48 17
v 17 48 17
v 17 30 17
v -47 30 17
v -17 30 17
v -17 48 17
v -47 48 17
v 31 81 8.5
v 31 81 5.5
v 23 81 5.5
v 23 81 8.5
v 47 73 8.5
v 47 73 5.5
v 41 78 5.5
v 41 78 8.5
v 47 73 -17.5
v 47 73 -20.5
v 41 78 -20.5
v 41 78 -17.5
v 31 81 -17.5
v 31 81 -20.5
v 23 81 -20.5
v 23 81 -17.5
v -31 81 8.5
v -23 81 8.5
v -23 81 5.5
v -31 81 5.5
v -47 73 8.5
v -41 78 8.5
v -41 78 5.5
v -47 73 5.5
v -47 73 -17.5
v -41 78 -17.5
v -41 78 -20.5
v -47 73 -20.5
v -31 81 -17.5
v -23 81 -17.5
v -23 81 -20.5
v -31 81 -20.5
v -10 46.5 32
v 10 46.5 32
v 10 63.5 32
v -10 63.5 32
vn 0 0 0.9980469
vn 0 0 0.9980469
vn 0 0 0.9980469
vn 0 0 0.9980469
vn 0 0 0.9980469
vn 0 0 0.9980469
vn 0 0 0.9980469
vn 0 0 0.9980469
vn 0 0 0.9980469
vn 0 0 0.9980469
vn 0 0 0.9980469
vn 0 0 0.9980469
vn 0 0 0.9980469
vn 0 0 0.9980469
vn 0 0 0.9980469
vn 0 0 0.9980469
vn 0 0 0.9980469
vn 0 0 0.9980469
vn 0 0 0.9980469
vn 0 0 0.9980469
vn 0 0 0.9980469
vn 0 0 0.9980469
vn 0 0 0.9980469
vn 0 0 0.9980469
vn 0 0 0.9980469
vn 0 0 0.9980469
vn 0 0 0.9980469
vn 0 0 0.9980469
vn 0 0 0.9980469
vn 0 0 0.9980469
vn 0 0 0.9980469
vn 0 0 0.9980469
vn 0 0 0.9980469
vn 0 0 0.9980469
vn 0 0 0.9980469
vn 0 0 0.9980469
vn 0 0 0.9980469
vn 0 0 0.9980469
vn 0 0 0.9980469
vn 0 0 0.9980469
vn 0 0 0.9980469
vn 0 0 0.9980469
vn 0 0 0.9980469
vn 0 0 0.9980469
vt 0.03125 -0.21875
vt 0.03125 -0.03125
vt 0.46875 -0.03125
vt 0.46875 -0.21875
vt 0.03125 -0.21875
vt 0.46875 -0.21875
vt 0.46875 -0.03125
vt 0.03125 -0.03125
vt 0.7734375 -0.2207031
vt 0.78125 -0.15625
vt 0.84375 -0.15625
vt 0.84375 -0.21875
vt 0.7734375 -0.2207031
vt 0.78125 -0.15625
vt 0.84375 -0.15625
vt 0.84375 -0.21875
vt 0.7734375 -0.2207031
vt 0.78125 -0.15625
vt 0.84375 -0.15625
vt 0.84375 -0.21875
vt 0.7734375 -0.2207031
vt 0.78125 -0.15625
vt 0.84375 -0.15625
vt 0.84375 -0.21875
vt 0.7734375 -0.2207031
vt 0.84375 -0.21875
vt 0.84375 -0.15625
vt 0.78125 -0.15625
vt 0.7734375 -0.2207031
vt 0.84375 -0.21875
vt 0.84375 -0.15625
vt 0.78125 -0.15625
vt 0.7734375 -0.2207031
vt 0.84375 -0.21875
vt 0.84375 -0.15625
vt 0.78125 -0.15625
vt 0.7734375 -0.2207031
vt 0.84375 -0.21875
vt 0.84375 -0.15625
vt 0.78125 -0.15625
vt -0.96875 -1.96875
vt -0.03125 -1.96875
vt -0.03125 -1.28125
vt -0.96875 -1.28125
f 21/21/21 22/22/22 23/23/23 24/24/24
f 25/25/25 26/26/26 27/27/27 28/28/28
f 29/29/29 30/30/30 31/31/31 32/32/32
f 33/33/33 34/34/34 35/35/35 36/36/36
f 37/37/37 38/38/38 39/39/39 40/40/40
f 41/41/41 42/42/42 43/43/43 44/44/44
f 45/45/45 46/46/46 47/47/47 48/48/48
f 49/49/49 50/50/50 51/51/51 52/52/52
f 53/53/53 54/54/54 55/55/55 56/56/56
f 57/57/57 58/58/58 59/59/59 60/60/60
f 61/61/61 62/62/62 63/63/63 64/64/64
g polygon3
usemtl gymb
v 34.51563 75.44141 18.41016
v 34.51563 75.44141 -29
v -0.00390625 75.44141 18.41016
v -0.00390625 75.44141 -29
v -34.55469 75.44141 18.41016
v -34.55469 75.44141 -29
vn 0 0.9980469 0
vn 0 0.9980469 0
vn 0 0.9980469 0
vn 0 0.9980469 0
vn 0 0.9980469 0
vn 0 0.9980469 0
vt -0.484375 -0.609375
vt -0.484375 -0.015625
vt -0.015625 -0.609375
vt -0.015625 -0.015625
vt -0.484375 -0.609375
vt -0.484375 -0.015625
f 65/65/65 66/66/66 67/67/67
f 66/66/66 68/68/68 67/67/67
f 67/67/67 68/68/68 69/69/69
f 68/68/68 70/70/70 69/69/69
v 53 3 18
v 53 9 18
v 49 3 22
v 49 9 22
v 19 3 22
v 19 9 22
vn 0.7128906 0 0.703125
vn 0.7128906 0 0.703125
vn 0.3867188 0 0.921875
vn 0.3867188 0 0.921875
vn 0 0 0.9980469
vn 0 0 0.9980469
vt 0.1640625 -1.473633
vt 0.1757813 -1.473633
vt 0.1640625 -1.466797
vt 0.1757813 -1.466797
vt 0.1640625 -1.414063
vt 0.1757813 -1.414063
f 71/71/71 72/72/72 73/73/73
f 72/72/72 74/74/74 73/73/73
f 73/73/73 74/74/74 75/75/75
f 74/74/74 76/76/76 75/75/75
v -0.00390625 75.44141 18.41016
v -34.55469 75.44141 18.41016
v -27.60156 65.44141 18.41016
v -47.25781 65.44141 18.41016
v -33.56641 58.44141 18.41016
v -51 58.44141 18.41016
vn 0 0 0.9980469
vn 0 0 0.9980469
vn 0 0 0.9980469
vn 0 0 0.9980469
vn 0 0 0.9980469
vn 0 0 0.9980469
vt 0.5302734 -0.2324219
vt 0.5136719 -0.2324219
vt 0.5273438 -0.2919922
vt 0.5136719 -0.2919922
vt 0.5273438 -0.3505859
vt 0.5136719 -0.3505859
f 77/77/77 78/78/78 79/79/79
f 78/78/78 80/80/80 79/79/79
f 79/79/79 80/80/80 81/81/81
f 80/80/80 82/82/82 81/81/81
v -19 9 22
v -19 9 -32
v -49 9 22
v -49 9 -32
v -53 9 18
v -53 9 -28
vn 0 0.9980469 0
vn 0 0.9980469 0
vn 0 0.9980469 0
vn 0 0.9980469 0
vn 0 0.9980469 0
vn 0 0.9980469 0
vt 0.0546875 -1.457031
vt 0.0546875 -1.415039
vt 0.04101563 -1.457031
vt 0.04101563 -1.415039
vt 0.02734375 -1.457031
vt 0.02734375 -1.415039
f 83/83/83 84/84/84 85/85/85
f 84/84/84 86/86/86 85/85/85
f 85/85/85 86/86/86 87/87/87
f 86/86/86 88/88/88 87/87/87
v 34.51563 75.44141 18.41016
v -0.00390625 75.44141 18.41016
v 47.21875 65.44141 18.41016
v 27.57031 65.44141 18.41016
v 51 58.44141 18.41016
v 33.56641 58.44141 18.41016
vn 0 0 0.9980469
vn 0 0 0.9980469
vn 0 0 0.9980469
vn 0 0 0.9980469
vn 0 0 0.9980469
vn 0 0 0.9980469
vt 0.546875 -0.2324219
vt 0.5302734 -0.2324219
vt 0.546875 -0.2919922
vt 0.5332031 -0.2919922
vt 0.546875 -0.3505859
vt 0.5332031 -0.3505859
f 89/89/89 90/90/90 91/91/91
f 90/90/90 92/92/92 91/91/91
f 91/91/91 92/92/92 93/93/93
f 92/92/92 94/94/94 93/93/93
v 19 9 -32
v 19 9 22
v 49 9 -32
v 49 9 22
v 53 9 -28
v 53 9 18
vn 0 0.9980469 0
vn 0 0.9980469 0
vn 0 0.9980469 0
vn 0 0.9980469 0
vn 0 0.9980469 0
vn 0 0.9980469 0
vt 0.06933594 -1.415039
vt 0.06933594 -1.457031
vt 0.08300781 -1.415039
vt 0.08300781 -1.457031
vt 0.09765625 -1.415039
vt 0.09765625 -1.457031
f 95/95/95 96/96/96 97/97/97
f 96/96/96 98/98/98 97/97/97
f 97/97/97 98/98/98 99/99/99
f 98/98/98 100/100/100 99/99/99
v -19 3 22
v -19 9 22
v -49 3 22
v -49 9 22
v -53 3 18
v -53 9 18
vn 0 0 0.9980469
vn 0 0 0.9980469
vn -0.3867188 0 0.921875
vn -0.3867188 0 0.921875
vn -0.7128906 0 0.703125
vn -0.7128906 0 0.703125
vt 0.1757813 -1.473633
vt 0.1875 -1.473633
vt 0.1757813 -1.420898
vt 0.1875 -1.420898
vt 0.1757813 -1.414063
vt 0.1875 -1.414063
f 101/101/101 102/102/102 103/103/103
f 102/102/102 104/104/104 103/103/103
f 103/103/103 104/104/104 105/105/105
f 104/104/104 106/106/106 105/105/105
v 50.60547 10 -27.26563
v 47.46875 10 -30.44922
v 50.60547 32.5625 -27.26563
v 47.46875 32.5625 -30.44922
v 50.60547 46.46875 -27.26563
v 47.46875 46.46875 -30.44922
vn 0.7128906 0 -0.703125
vn 0.7128906 0 -0.703125
vn 0.7128906 0 -0.703125
vn 0.7128906 0 -0.703125
vn 0.7128906 0 -0.703125
vn 0.7128906 0 -0.703125
vt 0.06738281 -1.560547
vt 0.06933594 -1.560547
vt 0.06738281 -1.548828
vt 0.06933594 -1.548828
vt 0.06738281 -1.540039
vt 0.06933594 -1.540039
f 107/107/107 108/108/108 109/109/109
f 108/108/108 110/110/110 109/109/109
f 109/109/109 110/110/110 111/111/111
f 110/110/110 112/112/112 111/111/111
v -47.47266 10 -30.44922
v -50.61328 10 -27.26563
v -47.47266 32.5625 -30.44922
v -50.61328 32.5625 -27.26563
v -47.47266 46.46875 -30.44922
v -50.61328 46.46875 -27.26563
vn -0.7128906 0 -0.703125
vn -0.7128906 0 -0.703125
vn -0.7128906 0 -0.703125
vn -0.7128906 0 -0.703125
vn -0.7128906 0 -0.703125
vn -0.7128906 0 -0.703125
vt 0.06933594 -1.560547
vt 0.07128906 -1.560547
vt 0.06933594 -1.548828
vt 0.07128906 -1.548828
vt 0.06933594 -1.540039
vt 0.07128906 -1.540039
f 113/113/113 114/114/114 115/115/115
f 114/114/114 116/116/116 115/115/115
f 115/115/115 116/116/116 117/117/117
f 116/116/116 118/118/118 117/117/117
v 50.60547 46.46875 16.77734
v 47.46875 46.46875 19.95703
v 50.60547 32.5625 16.77734
v 47.46875 32.5625 19.95703
v 50.60547 10 16.77734
v 47.46875 10 19.95703
vn 0.7128906 0 0.703125
vn 0.7128906 0 0.703125
vn 0.7128906 0 0.703125
vn 0.5097656 0 0.8613281
vn 0.7128906 0 0.703125
vn 0.3867188 0 0.921875
vt 0.09375 -1.555664
vt 0.09179688 -1.555664
vt 0.09375 -1.564453
vt 0.09179688 -1.564453
vt 0.09375 -1.576172
vt 0.09179688 -1.576172
f 119/119/119 120/120/120 121/121/121
f 120/120/120 122/122/122 121/121/121
f 121/121/121 122/122/122 123/123/123
f 122/122/122 124/124/124 123/123/123
v -47.47266 46.46875 19.95703
v -50.61328 46.46875 16.77734
v -47.47266 32.5625 19.95703
v -50.61328 32.5625 16.77734
v -47.47266 10 19.95703
v -50.61328 10 16.77734
vn -0.7128906 0 0.703125
vn -0.7128906 0 0.703125
vn -0.5097656 0 0.8613281
vn -0.7128906 0 0.703125
vn -0.3867188 0 0.921875
vn -0.7128906 0 0.703125
vt 0.07226563 -1.577148
vt 0.0703125 -1.577148
vt 0.07226563 -1.585938
vt 0.0703125 -1.585938
vt 0.07226563 -1.598633
vt 0.0703125 -1.598633
f 125/125/125 126/126/126 127/127/127
f 126/126/126 128/128/128 127/127/127
f 127/127/127 128/128/128 129/129/129
f 128/128/128 130/130/130 129/129/129
v -19 45 22
v -19 9 22
v -17 9 26
v -17 45 26
v 19 9 22
v 19 45 22
v 17 45 26
v 17 9 26
v -19 9 22
v -19 3 22
v -17 3 26
v -17 9 26
v 19 3 22
v 19 9 22
v 17 9 26
v 17 3 26
v -19 9 -32
v -19 9 22
v -19 45 22
v -19 45 -32
v 19 9 22
v 19 9 -32
v 19 45 -32
v 19 45 22
v -34.55469 75.44141 -29
v -47.25781 65.44141 -29
v -47.25781 65.44141 18.41016
v -34.55469 75.44141 18.41016
v -47.25781 65.44141 -29
v -51 58.44141 -29
v -51 58.44141 18.41016
v -47.25781 65.44141 18.41016
v 34.51563 75.44141 -29
v 34.51563 75.44141 18.41016
v 47.21875 65.44141 18.41016
v 47.21875 65.44141 -29
v 37.18359 33.32422 18.92188
v 40.41406 33.32422 18.92188
v 40.41406 46.44531 18.92188
v 37.18359 46.44531 18.92188
v 28.02344 33.32422 18.92188
v 31.25391 33.32422 18.92188
v 31.25391 46.44531 18.92188
v 28.02344 46.44531 18.92188
v -31.04688 33.32813 18.92578
v -27.82031 33.32813 18.92578
v -27.82031 46.44922 18.92578
v -31.04688 46.44922 18.92578
v -40.21094 33.32813 18.92578
v -36.98047 33.32813 18.92578
v -36.98047 46.44922 18.92578
v -40.21094 46.44922 18.92578
v -17 9 26
v -17 3 26
v -13 3 26
v -13 9 26
v 13 3 26
v 13 9 26
v 13 9 17
v 13 3 17
v -53 9 18
v -53 9 -28
v -53 3 -28
v -53 3 18
v 53 9 18
v 53 3 18
v 53 3 -28
v 53 9 -28
v 49 9 -32
v 53 9 -28
v 53 3 -28
v 49 3 -32
v -53 9 -28
v -49 9 -32
v -49 3 -32
v -53 3 -28
v 47.21875 65.44141 18.41016
v 51 58.44141 18.41016
v 51 58.44141 -29
v 47.21875 65.44141 -29
v -13 45 26
v -13 9 26
v -13 9 17
v -13 45 17
v -47.47266 10 19.95703
v -19 10 19.95703
v -19 32.5625 19.95703
v -47.47266 32.5625 19.95703
v -44.6875 34.26563 18.61719
v -47.47266 32.5625 19.95703
v -19 32.5625 19.95703
v -23 34.26563 18.61719
v 23 34.26563 18.61719
v 19 32.5625 19.95703
v 47.46875 32.5625 19.95703
v 44.68359 34.26563 18.61719
v 19 10 19.95703
v 47.46875 10 19.95703
v 47.46875 32.5625 19.95703
v 19 32.5625 19.95703
v 19 46.46875 19.95703
v 19 32.5625 19.95703
v 23 34.26563 18.61719
v 23 46.46875 18.61719
v 47.46875 32.5625 19.95703
v 47.46875 46.46875 19.95703
v 44.68359 46.46875 18.61719
v 44.68359 34.26563 18.61719
v -47.47266 46.46875 19.95703
v -47.47266 32.5625 19.95703
v -44.6875 34.26563 18.61719
v -44.6875 46.46875 18.61719
v -19 32.5625 19.95703
v -19 46.46875 19.95703
v -23 46.46875 18.61719
v -23 34.26563 18.61719
v -50.61328 46.46875 16.77734
v -50.61328 46.46875 -27.26563
v -50.61328 32.5625 -27.26563
v -50.61328 32.5625 16.77734
v -50.61328 32.5625 -27.26563
v -50.61328 10 -27.26563
v -50.61328 10 16.77734
v -50.61328 32.5625 16.77734
v 50.60547 46.46875 -27.26563
v 50.60547 46.46875 16.77734
v 50.60547 32.5625 16.77734
v 50.60547 32.5625 -27.26563
v 50.60547 32.5625 -27.26563
v 50.60547 32.5625 16.77734
v 50.60547 10 16.77734
v 50.60547 10 -27.26563
v -13 9 26
v -13 3 26
v -13 3 17
v -13 9 17
v 17 9 26
v 17 45 26
v 13 45 26
v 13 9 26
v 17 3 26
v 17 9 26
v 13 9 26
v 13 3 26
v -17 45 26
v -17 9 26
v -13 9 26
v -13 45 26
vn -0.8945313 0 0.4472656
vn -0.8945313 0 0.4472656
vn -0.8945313 0 0.4472656
vn -0.8945313 0 0.4472656
vn 0.8945313 0 0.4472656
vn 0.8945313 0 0.4472656
vn 0.8945313 0 0.4472656
vn 0.8945313 0 0.4472656
vn -0.8945313 0 0.4472656
vn -0.8945313 0 0.4472656
vn -0.8945313 0 0.4472656
vn -0.8945313 0 0.4472656
vn 0.8945313 0 0.4472656
vn 0.8945313 0 0.4472656
vn 0.8945313 0 0.4472656
vn 0.8945313 0 0.4472656
vn -1 0 0
vn -1 0 0
vn -1 0 0
vn -1 0 0
vn 0.9980469 0 0
vn 0.9980469 0 0
vn 0.9980469 0 0
vn 0.9980469 0 0
vn -0.6191406 0.7851563 0
vn -0.6191406 0.7851563 0
vn -0.6191406 0.7851563 0
vn -0.6191406 0.7851563 0
vn -0.8828125 0.4707031 0
vn -0.8828125 0.4707031 0
vn -0.8828125 0.4707031 0
vn -0.8828125 0.4707031 0
vn 0.6191406 0.7851563 0
vn 0.6191406 0.7851563 0
vn 0.6191406 0.7851563 0
vn 0.6191406 0.7851563 0
vn 0 0 0.9980469
vn 0 0 0.9980469
vn 0 0 0.9980469
vn 0 0 0.9980469
vn 0 0 0.9980469
vn 0 0 0.9980469
vn 0 0 0.9980469
vn 0 0 0.9980469
vn 0 0 0.9980469
vn 0 0 0.9980469
vn 0 0 0.9980469
vn 0 0 0.9980469
vn 0 0 0.9980469
vn 0 0 0.9980469
vn 0 0 0.9980469
vn 0 0 0.9980469
vn 0 0 0.9980469
vn 0 0 0.9980469
vn 0 0 0.9980469
vn 0 0 0.9980469
vn -1 0 0
vn -1 0 0
vn -1 0 0
vn -1 0 0
vn -1 0 0
vn -1 0 0
vn -1 0 0
vn -1 0 0
vn 0.9980469 0 0
vn 0.9980469 0 0
vn 0.9980469 0 0
vn 0.9980469 0 0
vn 0.7128906 0 -0.703125
vn 0.7128906 0 -0.703125
vn 0.7128906 0 -0.703125
vn 0.7128906 0 -0.703125
vn -0.7128906 0 -0.703125
vn -0.7128906 0 -0.703125
vn -0.7128906 0 -0.703125
vn -0.7128906 0 -0.703125
vn 0.8789063 0.4746094 0
vn 0.8789063 0.4746094 0
vn 0.8789063 0.4746094 0
vn 0.8789063 0.4746094 0
vn 0.9980469 0 0
vn 0.9980469 0 0
vn 0.9980469 0 0
vn 0.9980469 0 0
vn -0.3867188 0 0.921875
vn 0 0 0.9980469
vn 0 0 0.9980469
vn -0.5097656 0 0.8613281
vn 0 0.6191406 0.7851563
vn 0 0.6191406 0.7851563
vn 0 0.6191406 0.7851563
vn 0 0.6191406 0.7851563
vn 0 0.6191406 0.7851563
vn 0 0.6191406 0.7851563
vn 0 0.6191406 0.7851563
vn 0 0.6191406 0.7851563
vn 0 0 0.9980469
vn 0.3867188 0 0.921875
vn 0.5097656 0 0.8613281
vn 0 0 0.9980469
vn 0.3183594 0 0.9472656
vn 0.3183594 0 0.9472656
vn 0.3183594 0 0.9472656
vn 0.3183594 0 0.9472656
vn -0.3867188 0 0.921875
vn -0.3867188 0 0.921875
vn -0.3867188 0 0.921875
vn -0.3867188 0 0.921875
vn 0.3867188 0 0.921875
vn 0.3867188 0 0.921875
vn 0.3867188 0 0.921875
vn 0.3867188 0 0.921875
vn -0.3183594 0 0.9472656
vn -0.3183594 0 0.9472656
vn -0.3183594 0 0.9472656
vn -0.3183594 0 0.9472656
vn -1 0 0
vn -1 0 0
vn -1 0 0
vn -1 0 0
vn -1 0 0
vn -1 0 0
vn -1 0 0
vn -1 0 0
vn 0.9980469 0 0
vn 0.9980469 0 0
vn 0.9980469 0 0
vn 0.9980469 0 0
vn 0.9980469 0 0
vn 0.9980469 0 0
vn 0.9980469 0 0
vn 0.9980469 0 0
vn 0.9980469 0 0
vn 0.9980469 0 0
vn 0.9980469 0 0
vn 0.9980469 0 0
vn 0 0 0.9980469
vn 0 0 0.9980469
vn 0 0 0.9980469
vn 0 0 0.9980469
vn 0 0 0.9980469
vn 0 0 0.9980469
vn 0 0 0.9980469
vn 0 0 0.9980469
vn 0 0 0.9980469
vn 0 0 0.9980469
vn 0 0 0.9980469
vn 0 0 0.9980469
vt 0.046875 -1.595703
vt 0.02441406 -1.595703
vt 0.02441406 -1.598633
vt 0.046875 -1.598633
vt 0.046875 -1.563477
vt 0.06933594 -1.563477
vt 0.06933594 -1.561523
vt 0.046875 -1.561523
vt 0.2109375 -1.462891
vt 0.2109375 -1.473633
vt 0.21875 -1.473633
vt 0.21875 -1.462891
vt 0.21875 -1.462891
vt 0.21875 -1.452148
vt 0.2109375 -1.452148
vt 0.2109375 -1.462891
vt 0.02441406 -1.561523
vt 0.02441406 -1.595703
vt 0.046875 -1.595703
vt 0.046875 -1.561523
vt 0.046875 -1.563477
vt 0.046875 -1.598633
vt 0.06933594 -1.598633
vt 0.06933594 -1.563477
vt -0.484375 -0.015625
vt -0.625 -0.015625
vt -0.625 -0.609375
vt -0.484375 -0.609375
vt -0.734375 -0.015625
vt -0.625 -0.015625
vt -0.625 -0.609375
vt -0.734375 -0.609375
vt -0.484375 -0.015625
vt -0.484375 -0.609375
vt -0.625 -0.609375
vt -0.625 -0.015625
vt 0.04394531 -1.560547
vt 0.04589844 -1.560547
vt 0.04589844 -1.552734
vt 0.04394531 -1.552734
vt 0.04589844 -1.560547
vt 0.04882813 -1.560547
vt 0.04882813 -1.552734
vt 0.04589844 -1.552734
vt 0.04882813 -1.560547
vt 0.05078125 -1.560547
vt 0.05078125 -1.552734
vt 0.04882813 -1.552734
vt 0.05175781 -1.560547
vt 0.05371094 -1.560547
vt 0.05371094 -1.552734
vt 0.05175781 -1.552734
vt 0.21875 -1.452148
vt 0.21875 -1.462891
vt 0.2265625 -1.462891
vt 0.2265625 -1.452148
vt 0.1875 -1.473633
vt 0.1992188 -1.473633
vt 0.1992188 -1.458008
vt 0.1875 -1.458008
vt 0.1523438 -1.473633
vt 0.1523438 -1.392578
vt 0.140625 -1.392578
vt 0.140625 -1.473633
vt 0.1640625 -1.385742
vt 0.1523438 -1.385742
vt 0.1523438 -1.466797
vt 0.1640625 -1.466797
vt 0.1640625 -1.473633
vt 0.1640625 -1.466797
vt 0.1523438 -1.466797
vt 0.1523438 -1.473633
vt 0.1523438 -1.392578
vt 0.1523438 -1.385742
vt 0.140625 -1.385742
vt 0.140625 -1.392578
vt -0.734375 -0.609375
vt -0.625 -0.609375
vt -0.625 -0.015625
vt -0.734375 -0.015625
vt 0.05371094 -1.540039
vt 0.05371094 -1.560547
vt 0.06054688 -1.560547
vt 0.06054688 -1.540039
vt 0.390625 -1.984375
vt 0.984375 -1.984375
vt 0.984375 -1.640625
vt 0.390625 -1.640625
vt 0.07421875 -1.584961
vt 0.07226563 -1.585938
vt 0.09179688 -1.585938
vt 0.08886719 -1.584961
vt 0.07519531 -1.563477
vt 0.07226563 -1.564453
vt 0.09179688 -1.564453
vt 0.08984375 -1.563477
vt 0.390625 -1.984375
vt 0.984375 -1.984375
vt 0.984375 -1.640625
vt 0.390625 -1.640625
vt 0.07226563 -1.555664
vt 0.07226563 -1.564453
vt 0.07519531 -1.563477
vt 0.07519531 -1.555664
vt 0.09179688 -1.564453
vt 0.09179688 -1.555664
vt 0.08984375 -1.555664
vt 0.08984375 -1.563477
vt 0.07226563 -1.577148
vt 0.07226563 -1.585938
vt 0.07421875 -1.584961
vt 0.07421875 -1.577148
vt 0.09179688 -1.585938
vt 0.09179688 -1.577148
vt 0.08886719 -1.577148
vt 0.08886719 -1.584961
vt 0.015625 -1.640625
vt 0.359375 -1.640625
vt 0.359375 -1.984375
vt 0.015625 -1.984375
vt 0.359375 -1.640625
vt 0.359375 -1.984375
vt 0.015625 -1.984375
vt 0.015625 -1.640625
vt 0.359375 -1.640625
vt 0.015625 -1.640625
vt 0.015625 -1.984375
vt 0.359375 -1.984375
vt 0.359375 -1.640625
vt 0.015625 -1.640625
vt 0.015625 -1.984375
vt 0.359375 -1.984375
vt 0.2109375 -1.435547
vt 0.1992188 -1.435547
vt 0.1992188 -1.451172
vt 0.2109375 -1.451172
vt 0.06347656 -1.560547
vt 0.06347656 -1.540039
vt 0.06054688 -1.540039
vt 0.06054688 -1.560547
vt 0.2109375 -1.43457
vt 0.2109375 -1.423828
vt 0.203125 -1.423828
vt 0.203125 -1.43457
vt 0.06347656 -1.540039
vt 0.06347656 -1.560547
vt 0.06640625 -1.560547
vt 0.06640625 -1.540039
f 131/131/131 132/132/132 133/133/133 134/134/134
f 135/135/135 136/136/136 137/137/137 138/138/138
f 139/139/139 140/140/140 141/141/141 142/142/142
f 143/143/143 144/144/144 145/145/145 146/146/146
f 147/147/147 148/148/148 149/149/149 150/150/150
f 151/151/151 152/152/152 153/153/153 154/154/154
f 155/155/155 156/156/156 157/157/157 158/158/158
f 159/159/159 160/160/160 161/161/161 162/162/162
f 163/163/163 164/164/164 165/165/165 166/166/166
f 167/167/167 168/168/168 169/169/169 170/170/170
f 171/171/171 172/172/172 173/173/173 174/174/174
f 175/175/175 176/176/176 177/177/177 178/178/178
f 179/179/179 180/180/180 181/181/181 182/182/182
f 183/183/183 184/184/184 185/185/185 186/186/186
f 187/187/187 188/188/188 189/189/189 190/190/190
f 191/191/191 192/192/192 193/193/193 194/194/194
f 195/195/195 196/196/196 197/197/197 198/198/198
f 199/199/199 200/200/200 201/201/201 202/202/202
f 203/203/203 204/204/204 205/205/205 206/206/206
f 207/207/207 208/208/208 209/209/209 210/210/210
f 211/211/211 212/212/212 213/213/213 214/214/214
f 215/215/215 216/216/216 217/217/217 218/218/218
f 219/219/219 220/220/220 221/221/221 222/222/222
f 223/223/223 224/224/224 225/225/225 226/226/226
f 227/227/227 228/228/228 229/229/229 230/230/230
f 231/231/231 232/232/232 233/233/233 234/234/234
f 235/235/235 236/236/236 237/237/237 238/238/238
f 239/239/239 240/240/240 241/241/241 242/242/242
f 243/243/243 244/244/244 245/245/245 246/246/246
f 247/247/247 248/248/248 249/249/249 250/250/250
f 251/251/251 252/252/252 253/253/253 254/254/254
f 255/255/255 256/256/256 257/257/257 258/258/258
f 259/259/259 260/260/260 261/261/261 262/262/262
f 263/263/263 264/264/264 265/265/265 266/266/266
f 267/267/267 268/268/268 269/269/269 270/270/270
f 271/271/271 272/272/272 273/273/273 274/274/274
f 275/275/275 276/276/276 277/277/277 278/278/278
v 27.57031 65.44141 18.41016
v -0.00390625 75.44141 18.41016
v -27.60156 65.44141 18.41016
vn 0 0 0.9980469
vn 0 0 0.9980469
vn 0 0 0.9980469
vt 0.5332031 -0.2919922
vt 0.5302734 -0.2324219
vt 0.5273438 -0.2919922
f 279/279/279 280/280/280 281/281/281
g polygon4
usemtl gyma
v -20 61 24
v -20 61 27
v -12.57813 64.76953 24
v -12.57813 64.76953 27
v 12.57813 64.76953 24
v 12.57813 64.76953 27
v 20 61 24
v 20 61 27
v 20 58 24
v 20 58 27
v 20 42 24
v 20 42 27
vn -0.8515625 0.5234375 0
vn -0.7207031 0.4980469 0.4824219
vn -0.2324219 0.9726563 0
vn -0.21875 0.9042969 0.3652344
vn 0.2324219 0.9726563 0
vn 0.21875 0.9042969 0.3652344
vn 0.8789063 0.4746094 0
vn 0.7207031 0.4980469 0.4824219
vn 0.9980469 0 0
vn 0.859375 0 0.5117188
vn 0.9980469 0 0
vn 0.859375 0 0.5117188
vt 0.008789063 -0.3769531
vt 0.008789063 -0.3769531
vt 0.08691406 -0.3369141
vt 0.08691406 -0.3369141
vt 0.2890625 -0.3369141
vt 0.2890625 -0.3369141
vt 0.3662109 -0.3769531
vt 0.3662109 -0.3769531
vt 0.3662109 -0.4082031
vt 0.3662109 -0.4082031
vt 0.3662109 -0.6015625
vt 0.3662109 -0.6015625
f 282/282/282 283/283/283 284/284/284
f 283/283/283 285/285/285 284/284/284
f 284/284/284 285/285/285 286/286/286
f 285/285/285 287/287/287 286/286/286
f 286/286/286 287/287/287 288/288/288
f 287/287/287 289/289/289 288/288/288
f 288/288/288 289/289/289 290/290/290
f 289/289/289 291/291/291 290/290/290
f 290/290/290 291/291/291 292/292/292
f 291/291/291 293/293/293 292/292/292
v 12.57813 64.76953 27
v -12.57813 64.76953 27
v 12.57813 61 31
v -12.57813 61 31
v 12.57813 58 31
v -12.57813 58 31
v 12.57813 42 31
v -12.57813 42 31
vn 0.21875 0.9042969 0.3652344
vn -0.21875 0.9042969 0.3652344
vn 0.2285156 0.3925781 0.890625
vn -0.2285156 0.3925781 0.890625
vn 0.2441406 0 0.96875
vn -0.2441406 0 0.96875
vn 0.2441406 0 0.96875
vn -0.2441406 0 0.96875
vt 0.2890625 -0.3369141
vt 0.08691406 -0.3369141
vt 0.2890625 -0.3876953
vt 0.08691406 -0.3759766
vt 0.2890625 -0.4082031
vt 0.08691406 -0.4082031
vt 0.2890625 -0.6015625
vt 0.08691406 -0.6015625
f 294/294/294 295/295/295 296/296/296
f 295/295/295 297/297/297 296/296/296
f 296/296/296 297/297/297 298/298/298
f 297/297/297 299/299/299 298/298/298
f 298/298/298 299/299/299 300/300/300
f 299/299/299 301/301/301 300/300/300
v 20 42 24
v 20 42 21
v 20 58 24
v 20 58 21
v 20 61 24
v 20 61 21
vn 0.9980469 0 0
vn 0.9980469 0 0
vn 0.9980469 0 0
vn 0.9980469 0 0
vn 0.8789063 0.4746094 0
vn 0.9980469 0 0
vt 0.2734375 -0.9755859
vt 0.2734375 -0.8857422
vt 0.2734375 -0.9755859
vt 0.2734375 -0.8857422
vt 0.2734375 -0.9755859
vt 0.2734375 -0.8857422
f 302/302/302 303/303/303 304/304/304
f 303/303/303 305/305/305 304/304/304
f 304/304/304 305/305/305 306/306/306
f 305/305/305 307/307/307 306/306/306
v -20 42 21
v -20 42 24
v -20 58 21
v -20 58 24
v -20 61 21
v -20 61 24
vn -1 0 0
vn -1 0 0
vn -1 0 0
vn -1 0 0
vn -1 0 0
vn -0.8515625 0.5234375 0
vt 0.05664063 -0.8857422
vt 0.05664063 -0.9755859
vt 0.05664063 -0.8857422
vt 0.05664063 -0.9755859
vt 0.05664063 -0.8857422
vt 0.05664063 -0.9755859
f 308/308/308 309/309/309 310/310/310
f 309/309/309 311/311/311 310/310/310
f 310/310/310 311/311/311 312/312/312
f 311/311/311 313/313/313 312/312/312
v -20 58 24
v -20 42 24
v -20 58 27
v -20 42 27
v -12.57813 58 31
v -12.57813 42 31
vn -1 0 0
vn -1 0 0
vn -0.859375 0 0.5117188
vn -0.859375 0 0.5117188
vn -0.2441406 0 0.96875
vn -0.2441406 0 0.96875
vt 0.008789063 -0.4082031
vt 0.008789063 -0.6015625
vt 0.008789063 -0.4082031
vt 0.008789063 -0.6015625
vt 0.08691406 -0.4082031
vt 0.08691406 -0.6015625
f 314/314/314 315/315/315 316/316/316
f 315/315/315 317/317/317 316/316/316
f 316/316/316 317/317/317 318/318/318
f 317/317/317 319/319/319 318/318/318
v -19 46 20.91797
v -19 58 20.91797
v -55.37109 46 20.91797
v -55.37109 58 20.91797
v -58.62891 46 17.91797
v -58.62891 58 17.91797
vn 0 0 0.9980469
vn 0 0 0.9980469
vn -0.3867188 0 0.921875
vn -0.3867188 0 0.921875
vn -0.7128906 0 0.703125
vn -0.7128906 0 0.703125
vt -0.765625 -0.234375
vt -0.765625 -0.015625
vt -0.984375 -0.234375
vt -0.984375 -0.015625
vt -0.765625 -0.234375
vt -0.765625 -0.015625
f 320/320/320 321/321/321 322/322/322
f 321/321/321 323/323/323 322/322/322
f 322/322/322 323/323/323 324/324/324
f 323/323/323 325/325/325 324/324/324
v 20 61 27
v 12.57813 61 31
v 20 58 27
v 12.57813 58 31
v 20 42 27
v 12.57813 42 31
vn 0.7207031 0.4980469 0.4824219
vn 0.2285156 0.3925781 0.890625
vn 0.859375 0 0.5117188
vn 0.2441406 0 0.96875
vn 0.859375 0 0.5117188
vn 0.2441406 0 0.96875
vt 0.3662109 -0.3769531
vt 0.2890625 -0.3876953
vt 0.3662109 -0.4082031
vt 0.2890625 -0.4082031
vt 0.3662109 -0.6015625
vt 0.2890625 -0.6015625
f 326/326/326 327/327/327 328/328/328
f 327/327/327 329/329/329 328/328/328
f 328/328/328 329/329/329 330/330/330
f 329/329/329 331/331/331 330/330/330
v -20 61 24
v -20 58 24
v -20 61 27
v -20 58 27
v -12.57813 61 31
v -12.57813 58 31
vn -0.8515625 0.5234375 0
vn -1 0 0
vn -0.7207031 0.4980469 0.4824219
vn -0.859375 0 0.5117188
vn -0.2285156 0.3925781 0.890625
vn -0.2441406 0 0.96875
vt 0.008789063 -0.3769531
vt 0.008789063 -0.4082031
vt 0.008789063 -0.3769531
vt 0.008789063 -0.4082031
vt 0.08691406 -0.3759766
vt 0.08691406 -0.4082031
f 332/332/332 333/333/333 334/334/334
f 333/333/333 335/335/335 334/334/334
f 334/334/334 335/335/335 336/336/336
f 335/335/335 337/337/337 336/336/336
v 49.96484 70 9.808594
v 55.98438 58.44141 9.808594
v 55.98438 58.44141 3.40625
v 49.96484 70 3.410156
v 49.96484 70 9.808594
v 47.22266 65.44141 9.808594
v 50.96484 58.44141 9.808594
v 55.98438 58.44141 9.808594
v 36.96484 80 3.410156
v 16.96484 80 3.410156
v 16.96484 80 9.808594
v 36.96484 80 9.808594
v 36.96484 80 9.808594
v 16.96484 80 9.808594
v 16.94922 75.44141 9.808594
v 34.52344 75.44141 9.808594
v 49.96484 70 9.808594
v 36.96484 80 9.808594
v 34.52344 75.44141 9.808594
v 47.22266 65.44141 9.808594
v 49.96484 70 9.808594
v 49.96484 70 3.410156
v 36.96484 80 3.410156
v 36.96484 80 9.808594
v -17 80 3.410156
v -17 80 9.808594
v -11.95313 75.44922 8
v -12 75.44922 6
v -50 70 9.808594
v -50 70 3.410156
v -56.01563 58.44141 3.40625
v -56.01563 58.44141 9.808594
v -50 70 9.808594
v -56.01563 58.44141 9.808594
v -51 58.44141 9.808594
v -47.25781 65.44141 9.808594
v -37 80 3.410156
v -37 80 9.808594
v -17 80 9.808594
v -17 80 3.410156
v -37 80 9.808594
v -34.55469 75.44141 9.808594
v -16.98438 75.44141 9.808594
v -17 80 9.808594
v -50 70 9.808594
v -47.25781 65.44141 9.808594
v -34.55469 75.44141 9.808594
v -37 80 9.808594
v -50 70 9.808594
v -37 80 9.808594
v -37 80 3.410156
v -50 70 3.410156
v 16.96484 80 -21.98047
v 11.92578 75.44922 -20
v 11.92188 75.44531 -18
v 16.96484 80 -16.00391
v 49.96484 70 -16.00391
v 55.98438 58.44141 -16.00391
v 55.98438 58.44141 -21.98438
v 49.96484 70 -21.98047
v 49.96484 70 -16.00391
v 47.22266 65.44141 -16.00391
v 50.96484 58.44141 -16.00391
v 55.98438 58.44141 -16.00391
v 36.96484 80 -21.98047
v 16.96484 80 -21.98047
v 16.96484 80 -16.00391
v 36.96484 80 -16.00391
v 36.96484 80 -16.00391
v 16.96484 80 -16.00391
v 16.94922 75.44141 -16.00391
v 34.52344 75.44141 -16.00391
v 49.96484 70 -16.00391
v 36.96484 80 -16.00391
v 34.52344 75.44141 -16.00391
v 47.22266 65.44141 -16.00391
v 49.96484 70 -16.00391
v 49.96484 70 -21.98047
v 36.96484 80 -21.98047
v 36.96484 80 -16.00391
v 13 45 4
v 13 3 4
v 13 9 17
v 13 45 17
v -17 80 -21.98047
v -17 80 -16.00391
v -11.95313 75.44922 -18
v -11.95703 75.44922 -20
v -50 70 -16.00391
v -50 70 -21.98047
v -56.01563 58.44141 -21.98438
v -56.01563 58.44141 -16.00391
v -50 70 -16.00391
v -56.01563 58.44141 -16.00391
v -51 58.44141 -16.00391
v -47.25781 65.44141 -16.00391
v -37 80 -21.98047
v -37 80 -16.00391
v -17 80 -16.00391
v -17 80 -21.98047
v -37 80 -16.00391
v -34.55469 75.44141 -16.00391
v -16.98438 75.44141 -16.00391
v -17 80 -16.00391
v -50 70 -16.00391
v -47.25781 65.44141 -16.00391
v -34.55469 75.44141 -16.00391
v -37 80 -16.00391
v -50 70 -16.00391
v -37 80 -16.00391
v -37 80 -21.98047
v -50 70 -21.98047
v 12.57813 64.76953 21
v 20 61 21
v 20 61 2
v 12.57813 64.76953 2
v 20 61 21
v 20 58 21
v 20 58 2
v 20 61 2
v -12.57813 64.76953 21
v 12.57813 64.76953 21
v 12.57813 64.76953 2
v -12.57813 64.76953 2
v -20 61 21
v -12.57813 64.76953 21
v -12.57813 64.76953 2
v -20 61 2
v -20 58 21
v -20 61 21
v -20 61 2
v -20 58 2
v -13 45 4
v -13 45 17
v -13 9 17
v -13 3 4
v -13 45 4
v -13 3 4
v 13 3 4
v 13 45 4
v 12.57813 64.76953 21
v 12.57813 64.76953 24
v 20 61 24
v 20 61 21
v 13 3 17
v 13 3 4
v -13 3 4
v -13 3 17
v -12.57813 64.76953 21
v -12.57813 64.76953 24
v 12.57813 64.76953 24
v 12.57813 64.76953 21
v -20 61 21
v -20 61 24
v -12.57813 64.76953 24
v -12.57813 64.76953 21
v -56.01563 3.117188 11.44141
v -56.01563 48.78906 11.44141
v -56.01563 48.78906 3.4375
v -56.01563 3.117188 3.441406
v -56.01563 3.117188 -13.96875
v -56.01563 48.78906 -14
v -56.01563 48.78906 -21.96484
v -56.01563 3.117188 -21.96094
v -51 48.78906 11.44141
v -56.01563 48.78906 11.44141
v -56.01563 3.117188 11.44141
v -51 3.117188 11.44141
v -51 48.78906 -14
v -56.01563 48.78906 -14
v -56.01563 3.117188 -13.96875
v -51 3.117188 -13.96875
v 55.97656 48.78906 3.441406
v 55.97656 48.78906 11.44141
v 55.97656 3.117188 11.44141
v 55.97656 3.117188 3.441406
v 55.97656 48.78906 11.44141
v 51 48.78906 11.44141
v 51 3.117188 11.44141
v 55.97656 3.117188 11.44141
v 55.97656 48.78906 -21.96875
v 55.97656 48.78906 -14
v 55.97656 3.117188 -13.96875
v 55.97656 3.117188 -21.96875
v 55.97656 48.78906 -14
v 51 48.78906 -14
v 51 3.117188 -13.96875
v 55.97656 3.117188 -13.96875
v 58.62891 58 17.91797
v 19 58 17.91797
v 19 58 20.91797
v 55.37109 58 20.91797
v 55.37109 58 -31
v 19 58 -31
v 19 58 -28
v 58.62891 58 -28
v -58.62891 58 17.91797
v -58.62891 58 -28
v -58.62891 46 -28
v -58.62891 46 17.91797
v -20 42 21
v -20 58 21
v -20 58 2
v -20 42 2
v 55.37109 58 -31
v 58.62891 58 -28
v 58.62891 46 -28
v 55.37109 46 -31
v -58.62891 58 -28
v -55.37109 58 -31
v -55.37109 46 -31
v -58.62891 46 -28
v 58.62891 58 -28
v 19 58 -28
v 19 58 17.91797
v 58.62891 58 17.91797
v 55.37109 46 20.91797
v 58.62891 46 17.91797
v 58.62891 58 17.91797
v 55.37109 58 20.91797
v 19 58 20.91797
v 19 46 20.91797
v 55.37109 46 20.91797
v 55.37109 58 20.91797
v -19 58 20.91797
v -19 58 17.91797
v -58.62891 58 17.91797
v -55.37109 58 20.91797
v -19 58 -28
v -19 58 -31
v -55.37109 58 -31
v -58.62891 58 -28
v -19 58 17.91797
v -19 58 -28
v -58.62891 58 -28
v -58.62891 58 17.91797
v 58.62891 58 17.91797
v 58.62891 46 17.91797
v 58.62891 46 -28
v 58.62891 58 -28
v 16.96484 80 3.410156
v 11.92578 75.44922 6
v 11.92188 75.44531 8
v 16.96484 80 9.808594
vn 0.8789063 0.4746094 0
vn 0.8789063 0.4746094 0
vn 0.8789063 0.4746094 0
vn 0.8789063 0.4746094 0
vn 0 0 0.9980469
vn 0 0 0.9980469
vn 0 0 0.9980469
vn 0 0 0.9980469
vn 0 0.9980469 0
vn 0 0.9980469 0
vn 0 0.9980469 0
vn 0 0.9980469 0
vn 0 0 0.9980469
vn 0 0 0.9980469
vn 0 0 0.9980469
vn 0 0 0.9980469
vn 0 0 0.9980469
vn 0 0 0.9980469
vn 0 0 0.9980469
vn 0 0 0.9980469
vn 0.6191406 0.7851563 0
vn 0.6191406 0.7851563 0
vn 0.6191406 0.7851563 0
vn 0.6191406 0.7851563 0
vn 0.6699219 0.7421875 0
vn 0.6699219 0.7421875 0
vn 0.6699219 0.7421875 0
vn 0.6699219 0.7421875 0
vn -0.8828125 0.4707031 0
vn -0.8828125 0.4707031 0
vn -0.8828125 0.4707031 0
vn -0.8828125 0.4707031 0
vn 0 0 0.9980469
vn 0 0 0.9980469
vn 0 0 0.9980469
vn 0 0 0.9980469
vn 0 0.9980469 0
vn 0 0.9980469 0
vn 0 0.9980469 0
vn 0 0.9980469 0
vn 0 0 0.9980469
vn 0 0 0.9980469
vn 0 0 0.9980469
vn 0 0 0.9980469
vn 0 0 0.9980469
vn 0 0 0.9980469
vn 0 0 0.9980469
vn 0 0 0.9980469
vn -0.6191406 0.7851563 0
vn -0.6191406 0.7851563 0
vn -0.6191406 0.7851563 0
vn -0.6191406 0.7851563 0
vn -0.6699219 0.7421875 0
vn -0.6699219 0.7421875 0
vn -0.6699219 0.7421875 0
vn -0.6699219 0.7421875 0
vn 0.8789063 0.4746094 0
vn 0.8789063 0.4746094 0
vn 0.8789063 0.4746094 0
vn 0.8789063 0.4746094 0
vn 0 0 0.9980469
vn 0 0 0.9980469
vn 0 0 0.9980469
vn 0 0 0.9980469
vn 0 0.9980469 0
vn 0 0.9980469 0
vn 0 0.9980469 0
vn 0 0.9980469 0
vn 0 0 0.9980469
vn 0 0 0.9980469
vn 0 0 0.9980469
vn 0 0 0.9980469
vn 0 0 0.9980469
vn 0 0 0.9980469
vn 0 0 0.9980469
vn 0 0 0.9980469
vn 0.6191406 0.7851563 0
vn 0.6191406 0.7851563 0
vn 0.6191406 0.7851563 0
vn 0.6191406 0.7851563 0
vn -1 0 0
vn -1 0 0
vn -1 0 0
vn -1 0 0
vn 0.6699219 0.7421875 0
vn 0.6699219 0.7421875 0
vn 0.6699219 0.7421875 0
vn 0.6699219 0.7421875 0
vn -0.8828125 0.4707031 0
vn -0.8828125 0.4707031 0
vn -0.8828125 0.4707031 0
vn -0.8828125 0.4707031 0
vn 0 0 0.9980469
vn 0 0 0.9980469
vn 0 0 0.9980469
vn 0 0 0.9980469
vn 0 0.9980469 0
vn 0 0.9980469 0
vn 0 0.9980469 0
vn 0 0.9980469 0
vn 0 0 0.9980469
vn 0 0 0.9980469
vn 0 0 0.9980469
vn 0 0 0.9980469
vn 0 0 0.9980469
vn 0 0 0.9980469
vn 0 0 0.9980469
vn 0 0 0.9980469
vn -0.6191406 0.7851563 0
vn -0.6191406 0.7851563 0
vn -0.6191406 0.7851563 0
vn -0.6191406 0.7851563 0
vn 0.453125 0.890625 0
vn 0.453125 0.890625 0
vn 0.453125 0.890625 0
vn 0.453125 0.890625 0
vn 0.9980469 0 0
vn 0.9980469 0 0
vn 0.9980469 0 0
vn 0.9980469 0 0
vn 0 0.9980469 0
vn 0 0.9980469 0
vn 0 0.9980469 0
vn 0 0.9980469 0
vn -0.453125 0.890625 0
vn -0.453125 0.890625 0
vn -0.453125 0.890625 0
vn -0.453125 0.890625 0
vn -1 0 0
vn -1 0 0
vn -1 0 0
vn -1 0 0
vn 0.9980469 0 0
vn 0.9980469 0 0
vn 0.9980469 0 0
vn 0.9980469 0 0
vn 0 0 0.9980469
vn 0 0 0.9980469
vn 0 0 0.9980469
vn 0 0 0.9980469
vn 0.453125 0.890625 0
vn 0.2324219 0.9726563 0
vn 0.8789063 0.4746094 0
vn 0.453125 0.890625 0
vn 0 0.9980469 0
vn 0 0.9980469 0
vn 0 0.9980469 0
vn 0 0.9980469 0
vn 0 0.9980469 0
vn -0.2324219 0.9726563 0
vn 0.2324219 0.9726563 0
vn 0 0.9980469 0
vn -0.453125 0.890625 0
vn -0.8515625 0.5234375 0
vn -0.2324219 0.9726563 0
vn -0.453125 0.890625 0
vn -1 0 0
vn -1 0 0
vn -1 0 0
vn -1 0 0
vn -1 0 0
vn -1 0 0
vn -1 0 0
vn -1 0 0
vn 0 0 0.9980469
vn 0 0 0.9980469
vn 0 0 0.9980469
vn 0 0 0.9980469
vn 0 0 0.9980469
vn 0 0 0.9980469
vn 0 0 0.9980469
vn 0 0 0.9980469
vn 0.9980469 0 0
vn 0.9980469 0 0
vn 0.9980469 0 0
vn 0.9980469 0 0
vn 0 0 0.9980469
vn 0 0 0.9980469
vn 0 0 0.9980469
vn 0 0 0.9980469
vn 0.9980469 0 0
vn 0.9980469 0 0
vn 0.9980469 0 0
vn 0.9980469 0 0
vn 0 0 0.9980469
vn 0 0 0.9980469
vn 0 0 0.9980469
vn 0 0 0.9980469
vn 0 0.9980469 0
vn 0 0.9980469 0
vn 0 0.9980469 0
vn 0 0.9980469 0
vn 0 0.9980469 0
vn 0 0.9980469 0
vn 0 0.9980469 0
vn 0 0.9980469 0
vn -1 0 0
vn -1 0 0
vn -1 0 0
vn -1 0 0
vn -1 0 0
vn -1 0 0
vn -1 0 0
vn -1 0 0
vn 0.7128906 0 -0.703125
vn 0.7128906 0 -0.703125
vn 0.7128906 0 -0.703125
vn 0.7128906 0 -0.703125
vn -0.7128906 0 -0.703125
vn -0.7128906 0 -0.703125
vn -0.7128906 0 -0.703125
vn -0.7128906 0 -0.703125
vn 0 0.9980469 0
vn 0 0.9980469 0
vn 0 0.9980469 0
vn 0 0.9980469 0
vn 0.3867188 0 0.921875
vn 0.7128906 0 0.703125
vn 0.7128906 0 0.703125
vn 0.3867188 0 0.921875
vn 0 0 0.9980469
vn 0 0 0.9980469
vn 0.3867188 0 0.921875
vn 0.3867188 0 0.921875
vn 0 0.9980469 0
vn 0 0.9980469 0
vn 0 0.9980469 0
vn 0 0.9980469 0
vn 0 0.9980469 0
vn 0 0.9980469 0
vn 0 0.9980469 0
vn 0 0.9980469 0
vn 0 0.9980469 0
vn 0 0.9980469 0
vn 0 0.9980469 0
vn 0 0.9980469 0
vn 0.9980469 0 0
vn 0.9980469 0 0
vn 0.9980469 0 0
vn 0.9980469 0 0
vn -0.6699219 0.7421875 0
vn -0.6699219 0.7421875 0
vn -0.6699219 0.7421875 0
vn -0.6699219 0.7421875 0
vt 0.4003906 -0.6787109
vt 0.4003906 -0.5263672
vt 0.5019531 -0.5263672
vt 0.5019531 -0.6787109
vt 0.734375 -1.609375
vt 0.640625 -1.609375
vt 0.640625 -1.515625
vt 0.734375 -1.515625
vt 0.5019531 -0.8662109
vt 0.5019531 -0.9921875
vt 0.4003906 -0.9921875
vt 0.4003906 -0.8662109
vt 0.734375 -1.515625
vt 0.734375 -1.609375
vt 0.640625 -1.609375
vt 0.640625 -1.515625
vt 0.734375 -1.515625
vt 0.734375 -1.609375
vt 0.640625 -1.609375
vt 0.640625 -1.515625
vt 0.4003906 -0.6787109
vt 0.5019531 -0.6787109
vt 0.5019531 -0.8662109
vt 0.4003906 -0.8662109
vt 0.4804688 -0.8779297
vt 0.4804688 -0.9677734
vt 0.5693359 -0.9492188
vt 0.5693359 -0.8964844
vt 0.4003906 -0.6787109
vt 0.5019531 -0.6787109
vt 0.5019531 -0.5263672
vt 0.4003906 -0.5263672
vt 0.734375 -1.609375
vt 0.734375 -1.515625
vt 0.640625 -1.515625
vt 0.640625 -1.609375
vt 0.5019531 -0.8662109
vt 0.4003906 -0.8662109
vt 0.4003906 -0.9921875
vt 0.5019531 -0.9921875
vt 0.734375 -1.515625
vt 0.640625 -1.515625
vt 0.640625 -1.609375
vt 0.734375 -1.609375
vt 0.734375 -1.515625
vt 0.640625 -1.515625
vt 0.640625 -1.609375
vt 0.734375 -1.609375
vt 0.4003906 -0.6787109
vt 0.4003906 -0.8662109
vt 0.5019531 -0.8662109
vt 0.5019531 -0.6787109
vt 0.4804688 -0.8779297
vt 0.5693359 -0.8964844
vt 0.5693359 -0.9492188
vt 0.4804688 -0.9677734
vt 0.4003906 -0.6787109
vt 0.4003906 -0.5263672
vt 0.5019531 -0.5263672
vt 0.5019531 -0.6787109
vt 0.734375 -1.609375
vt 0.640625 -1.609375
vt 0.640625 -1.515625
vt 0.734375 -1.515625
vt 0.5019531 -0.8662109
vt 0.5019531 -0.9921875
vt 0.4003906 -0.9921875
vt 0.4003906 -0.8662109
vt 0.734375 -1.515625
vt 0.734375 -1.609375
vt 0.640625 -1.609375
vt 0.640625 -1.515625
vt 0.734375 -1.515625
vt 0.734375 -1.609375
vt 0.640625 -1.609375
vt 0.640625 -1.515625
vt 0.4003906 -0.6787109
vt 0.5019531 -0.6787109
vt 0.5019531 -0.8662109
vt 0.4003906 -0.8662109
vt -0.6914063 -1.020508
vt -0.6914063 -1.068359
vt -0.6845703 -1.060547
vt -0.6845703 -1.020508
vt 0.4804688 -0.8779297
vt 0.4804688 -0.9677734
vt 0.5693359 -0.9492188
vt 0.5693359 -0.8964844
vt 0.4003906 -0.6787109
vt 0.5019531 -0.6787109
vt 0.5019531 -0.5263672
vt 0.4003906 -0.5263672
vt 0.734375 -1.609375
vt 0.734375 -1.515625
vt 0.640625 -1.515625
vt 0.640625 -1.609375
vt 0.5019531 -0.8662109
vt 0.4003906 -0.8662109
vt 0.4003906 -0.9921875
vt 0.5019531 -0.9921875
vt 0.734375 -1.515625
vt 0.640625 -1.515625
vt 0.640625 -1.609375
vt 0.734375 -1.609375
vt 0.734375 -1.515625
vt 0.640625 -1.515625
vt 0.640625 -1.609375
vt 0.734375 -1.609375
vt 0.4003906 -0.6787109
vt 0.4003906 -0.8662109
vt 0.5019531 -0.8662109
vt 0.5019531 -0.6787109
vt 0.2255859 -0.8408203
vt 0.2734375 -0.8408203
vt 0.2734375 -0.5576172
vt 0.2255859 -0.5576172
vt 0.2734375 -0.8408203
vt 0.2734375 -0.8408203
vt 0.2734375 -0.5576172
vt 0.2734375 -0.5576172
vt 0.1044922 -0.8408203
vt 0.2255859 -0.8408203
vt 0.2255859 -0.5576172
vt 0.1044922 -0.5576172
vt 0.05664063 -0.8408203
vt 0.1044922 -0.8408203
vt 0.1044922 -0.5576172
vt 0.05664063 -0.5576172
vt 0.05664063 -0.8408203
vt 0.05664063 -0.8408203
vt 0.05664063 -0.5576172
vt 0.05664063 -0.5576172
vt -0.6914063 -1.020508
vt -0.6992188 -1.020508
vt -0.6992188 -1.060547
vt -0.6914063 -1.068359
vt -0.7138672 -1.020508
vt -0.7138672 -1.068359
vt -0.6992188 -1.068359
vt -0.6992188 -1.020508
vt 0.109375 -1.890625
vt 0.109375 -1.984375
vt 0.109375 -1.984375
vt 0.109375 -1.890625
vt -0.515625 -1.234375
vt -0.515625 -1.015625
vt -0.734375 -1.015625
vt -0.734375 -1.234375
vt 0.015625 -1.890625
vt 0.015625 -1.984375
vt 0.109375 -1.984375
vt 0.109375 -1.890625
vt 0.015625 -1.890625
vt 0.015625 -1.984375
vt 0.015625 -1.984375
vt 0.015625 -1.890625
vt 0.4814453 -0.5166016
vt 0.4814453 -0.7099609
vt 0.5664063 -0.7099609
vt 0.5664063 -0.5166016
vt 0.4814453 -0.5166016
vt 0.4814453 -0.7099609
vt 0.5664063 -0.7099609
vt 0.5664063 -0.5166016
vt 0.484375 -0.7050781
vt 0.5751953 -0.7050781
vt 0.5751953 -0.515625
vt 0.484375 -0.515625
vt 0.484375 -0.7050781
vt 0.5751953 -0.7050781
vt 0.5751953 -0.515625
vt 0.484375 -0.515625
vt 0.4833984 -0.7070313
vt 0.5761719 -0.7070313
vt 0.5761719 -0.5136719
vt 0.4833984 -0.5136719
vt 0.4833984 -0.7070313
vt 0.5761719 -0.7070313
vt 0.5761719 -0.5136719
vt 0.4833984 -0.5136719
vt 0.4833984 -0.7070313
vt 0.5761719 -0.7070313
vt 0.5761719 -0.5136719
vt 0.4833984 -0.5136719
vt 0.4833984 -0.7070313
vt 0.5761719 -0.7070313
vt 0.5761719 -0.5136719
vt 0.4833984 -0.5136719
vt 0.484375 -1.359375
vt 0.484375 -1.265625
vt 0.390625 -1.265625
vt 0.390625 -1.359375
vt 0.484375 -1.359375
vt 0.484375 -1.265625
vt 0.390625 -1.265625
vt 0.390625 -1.359375
vt -0.984375 -0.015625
vt -0.765625 -0.015625
vt -0.765625 -0.234375
vt -0.984375 -0.234375
vt -0.984375 -0.609375
vt -0.65625 -0.609375
vt -0.65625 -0.546875
vt -0.984375 -0.546875
vt -0.765625 -0.015625
vt -0.984375 -0.015625
vt -0.984375 -0.234375
vt -0.765625 -0.234375
vt -0.984375 -0.015625
vt -0.765625 -0.015625
vt -0.765625 -0.234375
vt -0.984375 -0.234375
vt 0.515625 -1.03125
vt 1 -1.03125
vt 1 -1.46875
vt 0.515625 -1.46875
vt -0.984375 -0.234375
vt -0.765625 -0.234375
vt -0.765625 -0.015625
vt -0.984375 -0.015625
vt -0.984375 -0.015625
vt -0.984375 -0.234375
vt -0.765625 -0.234375
vt -0.765625 -0.015625
vt 0.390625 -1.359375
vt 0.484375 -1.359375
vt 0.484375 -1.265625
vt 0.390625 -1.265625
vt 0.390625 -1.359375
vt 0.484375 -1.359375
vt 0.484375 -1.265625
vt 0.390625 -1.265625
vt 1 -1.46875
vt 1 -1.03125
vt 0.515625 -1.03125
vt 0.515625 -1.46875
vt -0.984375 -0.015625
vt -0.984375 -0.234375
vt -0.765625 -0.234375
vt -0.765625 -0.015625
vt 0.4804688 -0.8779297
vt 0.5693359 -0.8964844
vt 0.5693359 -0.9492188
vt 0.4804688 -0.9677734
f 338/338/338 339/339/339 340/340/340 341/341/341
f 342/342/342 343/343/343 344/344/344 345/345/345
f 346/346/346 347/347/347 348/348/348 349/349/349
f 350/350/350 351/351/351 352/352/352 353/353/353
f 354/354/354 355/355/355 356/356/356 357/357/357
f 358/358/358 359/359/359 360/360/360 361/361/361
f 362/362/362 363/363/363 364/364/364 365/365/365
f 366/366/366 367/367/367 368/368/368 369/369/369
f 370/370/370 371/371/371 372/372/372 373/373/373
f 374/374/374 375/375/375 376/376/376 377/377/377
f 378/378/378 379/379/379 380/380/380 381/381/381
f 382/382/382 383/383/383 384/384/384 385/385/385
f 386/386/386 387/387/387 388/388/388 389/389/389
f 390/390/390 391/391/391 392/392/392 393/393/393
f 394/394/394 395/395/395 396/396/396 397/397/397
f 398/398/398 399/399/399 400/400/400 401/401/401
f 402/402/402 403/403/403 404/404/404 405/405/405
f 406/406/406 407/407/407 408/408/408 409/409/409
f 410/410/410 411/411/411 412/412/412 413/413/413
f 414/414/414 415/415/415 416/416/416 417/417/417
f 418/418/418 419/419/419 420/420/420 421/421/421
f 422/422/422 423/423/423 424/424/424 425/425/425
f 426/426/426 427/427/427 428/428/428 429/429/429
f 430/430/430 431/431/431 432/432/432 433/433/433
f 434/434/434 435/435/435 436/436/436 437/437/437
f 438/438/438 439/439/439 440/440/440 441/441/441
f 442/442/442 443/443/443 444/444/444 445/445/445
f 446/446/446 447/447/447 448/448/448 449/449/449
f 450/450/450 451/451/451 452/452/452 453/453/453
f 454/454/454 455/455/455 456/456/456 457/457/457
f 458/458/458 459/459/459 460/460/460 461/461/461
f 462/462/462 463/463/463 464/464/464 465/465/465
f 466/466/466 467/467/467 468/468/468 469/469/469
f 470/470/470 471/471/471 472/472/472 473/473/473
f 474/474/474 475/475/475 476/476/476 477/477/477
f 478/478/478 479/479/479 480/480/480 481/481/481
f 482/482/482 483/483/483 484/484/484 485/485/485
f 486/486/486 487/487/487 488/488/488 489/489/489
f 490/490/490 491/491/491 492/492/492 493/493/493
f 494/494/494 495/495/495 496/496/496 497/497/497
f 498/498/498 499/499/499 500/500/500 501/501/501
f 502/502/502 503/503/503 504/504/504 505/505/505
f 506/506/506 507/507/507 508/508/508 509/509/509
f 510/510/510 511/511/511 512/512/512 513/513/513
f 514/514/514 515/515/515 516/516/516 517/517/517
f 518/518/518 519/519/519 520/520/520 521/521/521
f 522/522/522 523/523/523 524/524/524 525/525/525
f 526/526/526 527/527/527 528/528/528 529/529/529
f 530/530/530 531/531/531 532/532/532 533/533/533
f 534/534/534 535/535/535 536/536/536 537/537/537
f 538/538/538 539/539/539 540/540/540 541/541/541
f 542/542/542 543/543/543 544/544/544 545/545/545
f 546/546/546 547/547/547 548/548/548 549/549/549
f 550/550/550 551/551/551 552/552/552 553/553/553
f 554/554/554 555/555/555 556/556/556 557/557/557
f 558/558/558 559/559/559 560/560/560 561/561/561
f 562/562/562 563/563/563 564/564/564 565/565/565
f 566/566/566 567/567/567 568/568/568 569/569/569
f 570/570/570 571/571/571 572/572/572 573/573/573
f 574/574/574 575/575/575 576/576/576 577/577/577
f 578/578/578 579/579/579 580/580/580 581/581/581
v -13 3 4
v -13 9 17
v -13 3 17
v 16.96484 80 -16.00391
v 11.92188 75.44531 -18
v 16.94922 75.44141 -16.00391
v -17 80 9.808594
v -16.98438 75.44141 9.808594
v -11.95313 75.44922 8
v 13 9 17
v 13 3 4
v 13 3 17
v -20 61 27
v -12.57813 61 31
v -12.57813 64.76953 27
v 16.96484 80 9.808594
v 11.92188 75.44531 8
v 16.94922 75.44141 9.808594
v -17 80 -16.00391
v -16.98438 75.44141 -16.00391
v -11.95313 75.44922 -18
v 12.57813 61 31
v 20 61 27
v 12.57813 64.76953 27
vn 0.9980469 0 0
vn 0.9980469 0 0
vn 0.9980469 0 0
vn -0.3867188 0 0.921875
vn -0.3867188 0 0.921875
vn -0.3867188 0 0.921875
vn 0.3867188 0 0.921875
vn 0.3867188 0 0.921875
vn 0.3867188 0 0.921875
vn -1 0 0
vn -1 0 0
vn -1 0 0
vn -0.7207031 0.4980469 0.4824219
vn -0.2285156 0.3925781 0.890625
vn -0.21875 0.9042969 0.3652344
vn -0.3867188 0 0.921875
vn -0.3867188 0 0.921875
vn -0.3867188 0 0.921875
vn 0.3867188 0 0.921875
vn 0.3867188 0 0.921875
vn 0.3867188 0 0.921875
vn 0.2285156 0.3925781 0.890625
vn 0.7207031 0.4980469 0.4824219
vn 0.21875 0.9042969 0.3652344
vt -0.6914063 -1.068359
vt -0.6992188 -1.060547
vt -0.6992188 -1.068359
vt 0.734375 -1.515625
vt 0.640625 -1.609375
vt 0.640625 -1.515625
vt 0.734375 -1.515625
vt 0.640625 -1.515625
vt 0.640625 -1.609375
vt -0.6845703 -1.060547
vt -0.6914063 -1.068359
vt -0.6845703 -1.068359
vt 0.008789063 -0.3769531
vt 0.08691406 -0.3759766
vt 0.08691406 -0.3369141
vt 0.734375 -1.515625
vt 0.640625 -1.609375
vt 0.640625 -1.515625
vt 0.734375 -1.515625
vt 0.640625 -1.515625
vt 0.640625 -1.609375
vt 0.2890625 -0.3876953
vt 0.3662109 -0.3769531
vt 0.2890625 -0.3369141
f 582/582/582 583/583/583 584/584/584
f 585/585/585 586/586/586 587/587/587
f 588/588/588 589/589/589 590/590/590
f 591/591/591 592/592/592 593/593/593
f 594/594/594 595/595/595 596/596/596
f 597/597/597 598/598/598 599/599/599
f 600/600/600 601/601/601 602/602/602
f 603/603/603 604/604/604 605/605/605
